<svg enable-background="new 0 0 256 256" height="512" viewBox="0 0 256 256" width="512" xmlns="http://www.w3.org/2000/svg"><g id="Layer_16"><g><g><g><path d="m242.418 124.767h-48.932c-4.387 0-7.956-3.569-7.956-7.956v-71.752c0-4.387 3.569-7.956 7.956-7.956h48.932c4.387 0 7.956 3.569 7.956 7.956v71.751c.001 4.387-3.569 7.957-7.956 7.957z" fill="#5290db"/></g></g><g><path d="m152.937 86.219c-.699 0-1.384.059-2.054.163v24.232c0 .722-.033 1.436-.081 2.147.697.112 1.406.186 2.135.186 7.381 0 13.364-5.983 13.364-13.364-.001-7.381-5.984-13.364-13.364-13.364z" fill="#f9d0b4"/></g><g><path d="m134.184 75.765c-4.875 5.69-22.161 22.953-47.318 15.787v19.062c0 17.604 14.404 32.008 32.008 32.008 17.604 0 32.008-14.404 32.008-32.008v-25.86c0-1.176-.823-2.173-1.969-2.438-3.239-.751-7.171-2.626-11.679-6.722-.891-.811-2.266-.744-3.05.171z" fill="#f9d0b4"/></g><g><path d="m86.866 91.551c-2.198-.626-4.455-1.436-6.77-2.458-1.492-.659-3.236-.356-4.426.76-2.596 2.434-4.222 5.889-4.222 9.729 0 7.38 5.983 13.364 13.364 13.364.728 0 1.438-.074 2.135-.186-.048-.71-.081-1.425-.081-2.147z" fill="#f9d0b4"/></g><g><g><path d="m75.67 89.853c1.19-1.116 2.934-1.419 4.426-.76 2.315 1.022 4.572 1.832 6.77 2.458 25.157 7.166 42.443-10.097 47.318-15.787.784-.915 2.159-.981 3.05-.171 4.508 4.096 8.441 5.972 11.68 6.722 1.146.266 1.969 1.262 1.969 2.438v1.628c.67-.104 1.355-.163 2.054-.163 3.698 0 7.044 1.502 9.463 3.929v-7.827c0-23.939-19.586-43.525-43.525-43.525s-43.525 19.587-43.525 43.525v7.865c.108-.109.208-.226.32-.332z" fill="#5b5d60"/></g></g><g><path d="m163.402 165.118-10.889-2.749c-1.912-.482-3.769-1.164-5.538-2.036l-7.913-3.902c-3.039-1.499-4.963-4.593-4.963-7.981v-9.707c-4.534 2.471-9.723 3.878-15.225 3.878-5.501 0-10.69-1.407-15.225-3.878v9.707c0 3.388-1.924 6.483-4.963 7.981l-7.913 3.902c-1.769.872-3.625 1.554-5.538 2.036l-10.888 2.749z" fill="#f9d0b4"/></g><g><path d="m164.238 106.693c-2.366 3.753-6.537 6.253-11.301 6.253-.728 0-1.438-.074-2.135-.186-.752 11.199-7.322 20.871-16.703 25.983v9.707c0 3.107 1.63 5.952 4.243 7.56 1.047.645-.282-.112 8.634 4.323 1.199.591 2.783 1.218 4.005 1.6.242.076.488.142.732.211 4.71-1.724 8.866-4.461 11.558-8.723 4.936-7.815 2.055-15.387.239-18.776-.638-1.191-.528-2.618.198-3.757 6.114-9.588 3.227-18.922.53-24.195z" fill="#5b5d60"/></g><g><path d="m74.239 134.646c-1.817 3.389-4.697 10.961.239 18.776 2.692 4.262 6.848 7 11.558 8.723.244-.069.49-.135.732-.211 1.221-.383 2.805-1.009 4.005-1.6 9.495-4.723 7.666-3.726 8.634-4.323 2.612-1.609 4.243-4.453 4.243-7.56v-9.707c-9.38-5.113-15.951-14.784-16.703-25.983-.697.112-1.406.186-2.135.186-4.764 0-8.935-2.501-11.301-6.253-2.697 5.273-5.584 14.608.529 24.196.727 1.137.837 2.565.199 3.756z" fill="#5b5d60"/></g><g><g><path d="m42.964 149.882h-28.713c-4.756 0-8.625-3.869-8.625-8.625v-51.648c0-4.756 3.869-8.625 8.625-8.625h28.713c4.756 0 8.625 3.869 8.625 8.625v51.648c0 4.756-3.87 8.625-8.625 8.625z" fill="#70d6f9"/></g></g><g><path d="m20.107 82c0 4.694 3.806 8.5 8.5 8.5s8.5-3.806 8.5-8.5c0-.345-.027-.683-.066-1.016h-16.867c-.04.333-.067.671-.067 1.016z" fill="#5290db"/></g><g><path d="m195.53 47.103h44.845v67.664h-44.845z" fill="#f5c84c"/></g><g><path d="m195.53 47.103h44.845v11.897h-44.845z" fill="#6cadef"/></g><g><path d="m195.53 47.103h12.845v11.897h-12.845z" fill="#3a70bf"/></g><g><circle cx="111.95" cy="3.4" fill="#fc657e" r="3.4"/></g><g><path d="m212.141 187.5h2.3v2.3c0 1.8 1.4 3.2 3.2 3.2 1.7 0 3.2-1.4 3.2-3.1v-.1-2.3h2.3c1.8 0 3.2-1.4 3.2-3.2 0-1.7-1.4-3.2-3.1-3.2h-.1-2.3v-2.3c0-1.8-1.4-3.2-3.2-3.2-1.7 0-3.2 1.4-3.2 3.1v.1 2.3h-2.3c-1.8 0-3.2 1.4-3.2 3.2-.1 1.7 1.3 3.2 3.2 3.2-.1 0-.1 0 0 0z" fill="#70d6f9"/></g><g><path d="m37.323 173.2c-3.1-.6-5.6-3-6.2-6.1 0-.1-.3-.1-.3 0-.6 3.1-3.1 5.5-6.2 6.1-.1 0-.1.2 0 .3 3.1.6 5.6 3 6.2 6.1 0 .1.3.1.3 0 .6-3.1 3.1-5.5 6.2-6.1.1-.1.1-.3 0-.3z" fill="#f5c84c"/></g><g><circle cx="208.95" cy="211.6" fill="#87d147" r="3.4"/></g><g><path d="m70.532 22.2c4.5-.8 8-4.3 8.9-8.7 0-.2.4-.2.4 0 .9 4.4 4.4 7.9 8.9 8.7.2 0 .2.3 0 .4-4.5.8-8 4.3-8.9 8.7 0 .2-.4.2-.4 0-.9-4.4-4.4-7.9-8.9-8.7-.2-.1-.2-.4 0-.4z" fill="#f5c84c"/></g><g><path d="m152.937 115.446c-.441 0-.877-.022-1.308-.062-1.375-.126-2.387-1.343-2.26-2.718.126-1.375 1.348-2.389 2.718-2.26.28.025.563.041.85.041 5.99 0 10.864-4.874 10.864-10.864s-4.874-10.863-10.864-10.863c-.281 0-.56.012-.835.034-1.373.118-2.583-.913-2.694-2.289-.112-1.376.913-2.583 2.289-2.694.409-.033.822-.051 1.24-.051 8.747 0 15.864 7.116 15.864 15.863s-7.117 15.863-15.864 15.863z"/></g><g><path d="m118.875 145.122c-19.028 0-34.508-15.48-34.508-34.508v-19.063c0-.784.368-1.523.994-1.995.626-.473 1.437-.625 2.191-.409 23.773 6.772 40.251-9.776 44.735-15.009.817-.953 1.957-1.521 3.208-1.6 1.249-.075 2.493.361 3.421 1.205 3.618 3.287 7.171 5.352 10.563 6.138 2.298.532 3.904 2.536 3.904 4.874v25.859c0 19.027-15.481 34.508-34.508 34.508zm-29.509-50.372v15.863c0 16.271 13.237 29.508 29.508 29.508s29.508-13.237 29.508-29.508v-25.859c-4.176-.962-8.389-3.338-12.557-7.065-5.104 5.855-21.984 22.3-46.459 17.061zm46.717-17.359s-.001.001-.001.001.001 0 .001-.001z"/></g><g><path d="m84.813 115.446c-8.747 0-15.864-7.117-15.864-15.864 0-4.356 1.827-8.566 5.012-11.553 1.928-1.808 4.733-2.289 7.146-1.224 2.138.944 4.307 1.732 6.445 2.341 1.328.378 2.098 1.761 1.719 3.089s-1.762 2.099-3.089 1.719c-2.359-.672-4.746-1.539-7.094-2.575-.574-.254-1.244-.137-1.706.296-2.213 2.075-3.432 4.883-3.432 7.906 0 5.99 4.874 10.864 10.864 10.864.287 0 .57-.015.85-.041 1.372-.129 2.592.885 2.718 2.26.127 1.375-.885 2.592-2.26 2.718-.432.042-.868.064-1.309.064z"/></g><g><g><path d="m75.349 92.417c-1.381 0-2.5-1.119-2.5-2.5v-7.597c0-25.378 20.647-46.025 46.025-46.025s46.026 20.647 46.026 46.025v7.335c0 1.381-1.119 2.5-2.5 2.5s-2.5-1.119-2.5-2.5v-7.335c0-22.622-18.404-41.025-41.025-41.025s-41.026 18.404-41.026 41.025v7.597c0 1.381-1.119 2.5-2.5 2.5z"/></g></g><g><path d="m163.134 167.55c-.203 0-.409-.025-.614-.077l-10.618-2.68c-2.077-.523-4.107-1.269-6.031-2.218l-7.914-3.902c-3.922-1.934-6.358-5.851-6.358-10.224v-9.138c0-1.381 1.119-2.5 2.5-2.5s2.5 1.119 2.5 2.5v9.138c0 2.455 1.368 4.654 3.569 5.739l7.914 3.902c1.608.793 3.305 1.417 5.042 1.854l10.62 2.681c1.339.338 2.15 1.697 1.812 3.036-.286 1.134-1.305 1.889-2.422 1.889z"/></g><g><path d="m75.061 167.438c-1.118 0-2.136-.755-2.422-1.889-.338-1.339.473-2.698 1.812-3.036l10.173-2.568c1.74-.438 3.437-1.062 5.044-1.854l7.914-3.902c2.201-1.085 3.569-3.285 3.569-5.739v-9.033c0-1.381 1.119-2.5 2.5-2.5s2.5 1.119 2.5 2.5v9.033c0 4.373-2.436 8.29-6.358 10.224l-7.914 3.902c-1.923.948-3.953 1.695-6.033 2.218l-10.171 2.567c-.206.052-.412.077-.614.077z"/></g><g><path d="m118.875 128.598c-4.459 0-8.649-1.823-11.208-4.876-.887-1.058-.748-2.635.31-3.522 1.06-.887 2.635-.747 3.522.31 1.621 1.934 4.378 3.088 7.376 3.088s5.755-1.154 7.377-3.088c.886-1.058 2.462-1.198 3.521-.31 1.058.887 1.197 2.464.31 3.522-2.56 3.053-6.75 4.876-11.208 4.876z"/></g><g><circle cx="132.8" cy="103.282" r="4.147"/></g><g><circle cx="104.949" cy="103.282" r="4.147"/></g><g><path d="m152.026 164.529c-1.01 0-1.961-.617-2.339-1.618-.488-1.292.164-2.734 1.456-3.222 4.542-1.714 7.911-4.272 10.014-7.603 4.172-6.605 1.884-13.022.149-16.26-1.045-1.952-.933-4.359.294-6.283 5.231-8.203 3.165-16.229.51-21.517-.619-1.234-.121-2.736 1.113-3.356s2.737-.121 3.356 1.113c2.648 5.277 6.072 15.73-.763 26.449-.26.407-.298.868-.103 1.233 1.811 3.378 5.403 12.216-.329 21.292-2.697 4.27-6.895 7.504-12.476 9.611-.29.11-.588.161-.882.161z"/></g><g><path d="m85.735 164.534c-.293 0-.591-.052-.882-.161-5.588-2.107-9.79-5.343-12.489-9.616-5.732-9.076-2.139-17.914-.329-21.292.195-.364.157-.825-.103-1.233-6.836-10.721-3.41-21.178-.759-26.457.619-1.234 2.123-1.733 3.356-1.112 1.234.62 1.731 2.122 1.112 3.356-2.657 5.29-4.725 13.319.507 21.524 1.227 1.925 1.339 4.332.294 6.283-1.735 3.237-4.023 9.655.149 16.26 2.105 3.333 5.479 5.893 10.026 7.607 1.292.487 1.944 1.93 1.457 3.222-.377 1.002-1.328 1.619-2.339 1.619z"/></g><g><g><path d="m42.964 152.382h-28.714c-6.134 0-11.125-4.991-11.125-11.125v-51.648c0-6.135 4.991-11.125 11.125-11.125h28.713c6.134 0 11.125 4.991 11.125 11.125v51.648c.001 6.135-4.99 11.125-11.124 11.125zm-28.714-68.899c-3.377 0-6.125 2.748-6.125 6.125v51.648c0 3.377 2.748 6.125 6.125 6.125h28.713c3.377 0 6.125-2.748 6.125-6.125v-51.647c0-3.377-2.748-6.125-6.125-6.125h-28.713z"/></g></g><g><g><path d="m242.418 127.267h-48.933c-5.766 0-10.456-4.69-10.456-10.456v-71.752c0-5.766 4.69-10.456 10.456-10.456h48.933c5.766 0 10.456 4.69 10.456 10.456v71.751c.001 5.766-4.69 10.457-10.456 10.457zm-48.932-87.664c-3.008 0-5.456 2.448-5.456 5.456v71.751c0 3.008 2.448 5.456 5.456 5.456h48.933c3.008 0 5.456-2.448 5.456-5.456v-71.751c0-3.008-2.448-5.456-5.456-5.456z"/></g></g><g><path d="m28.607 93c-6.065 0-11-4.935-11-11 0-1.381 1.119-2.5 2.5-2.5s2.5 1.119 2.5 2.5c0 3.309 2.691 6 6 6s6-2.691 6-6c0-1.381 1.119-2.5 2.5-2.5s2.5 1.119 2.5 2.5c0 6.065-4.934 11-11 11z"/></g><g><path d="m240.375 117.267h-44.845c-1.381 0-2.5-1.119-2.5-2.5v-67.664c0-1.381 1.119-2.5 2.5-2.5h44.845c1.381 0 2.5 1.119 2.5 2.5v67.664c0 1.38-1.12 2.5-2.5 2.5zm-42.345-5h39.845v-62.664h-39.845z"/></g><g><path d="m239 61.5h-42.437c-1.381 0-2.5-1.119-2.5-2.5s1.119-2.5 2.5-2.5h42.437c1.381 0 2.5 1.119 2.5 2.5s-1.119 2.5-2.5 2.5z"/></g><g><path d="m208.375 60.438c-1.381 0-2.5-1.119-2.5-2.5v-9.938c0-1.381 1.119-2.5 2.5-2.5s2.5 1.119 2.5 2.5v9.938c0 1.381-1.12 2.5-2.5 2.5z"/></g><g><path d="m62.808 244.679c0-1.589 1.288-2.877 2.877-2.877h6.097c-2.251 0-4.076-1.825-4.076-4.076v-68.531c0-1.019.387-1.939 1.005-2.654l-6.362 1.606c-5.57 1.402-9.581 6.263-9.901 11.998l-2.529 69.504c-.117 2.091 1.548 3.851 3.643 3.851h18.067c-4.871 0-8.821-3.949-8.821-8.821z" fill="#5290db"/></g><g><path d="m185.3 180.144c-.32-5.735-4.331-10.596-9.901-11.998l-6.362-1.606c.618.715 1.005 1.635 1.005 2.654v68.531c0 2.251-1.825 4.076-4.076 4.076h6.097c1.589 0 2.877 1.288 2.877 2.877 0 4.872-3.949 8.821-8.821 8.821h18.067c2.095 0 3.76-1.76 3.643-3.851z" fill="#5290db"/></g><g><path d="m165.967 165.118h-94.185c-2.251 0-4.076 1.825-4.076 4.076v68.531c0 2.251 1.825 4.076 4.076 4.076h94.184c2.251 0 4.076-1.825 4.076-4.076v-68.531c.001-2.251-1.824-4.076-4.075-4.076z" fill="#edf4fc"/></g><g><path d="m172.064 241.802h-106.379c-1.589 0-2.877 1.288-2.877 2.877 0 4.872 3.949 8.821 8.821 8.821h94.49c4.872 0 8.821-3.949 8.821-8.821.001-1.589-1.287-2.877-2.876-2.877z" fill="#c7d7e5"/></g><g><path d="m62.808 244.679c0-1.589 1.288-2.877 2.877-2.877h6.097c-2.251 0-4.076-1.825-4.076-4.076v-26.855l-16.231-3.971-1.556 42.748c-.117 2.091 1.548 3.851 3.643 3.851h18.067c-4.871.001-8.821-3.948-8.821-8.82z" fill="#f9d0b4"/></g><g><path d="m186.274 206.9-16.231 3.971v26.855c0 2.251-1.825 4.076-4.076 4.076h6.097c1.589 0 2.877 1.288 2.877 2.877 0 4.872-3.949 8.821-8.821 8.821h18.067c2.095 0 3.76-1.76 3.643-3.851z" fill="#f9d0b4"/></g><g><path d="m71.629 256h-18.066c-1.682 0-3.311-.701-4.466-1.923-1.157-1.222-1.766-2.887-1.673-4.567l2.527-69.457c.385-6.913 5.122-12.653 11.789-14.331l6.086-1.536c1.338-.335 2.698.473 3.036 1.812s-.473 2.698-1.812 3.036l-6.087 1.537c-4.535 1.142-7.756 5.045-8.017 9.713l-2.527 69.456c-.026.478.183.767.31.901s.403.359.834.359h18.067c1.381 0 2.5 1.119 2.5 2.5s-1.12 2.5-2.501 2.5z"/></g><g><path d="m184.187 256h-18.067c-1.381 0-2.5-1.119-2.5-2.5s1.119-2.5 2.5-2.5h18.067c.43 0 .708-.225.834-.359s.336-.424.313-.853l-2.532-69.553c-.258-4.62-3.479-8.523-8.013-9.664l-6.118-1.544c-1.339-.338-2.15-1.697-1.812-3.036s1.697-2.149 3.036-1.812l6.116 1.544c6.666 1.677 11.402 7.417 11.785 14.282l2.532 69.553c.091 1.631-.518 3.296-1.674 4.519s-2.785 1.923-4.467 1.923z"/></g><g><path d="m125.184 208.999h-12.861c-1.381 0-2.5-1.119-2.5-2.5s1.119-2.5 2.5-2.5h12.861c1.381 0 2.5 1.119 2.5 2.5s-1.12 2.5-2.5 2.5z"/></g><g><path d="m165.967 244.302h-94.185c-3.626 0-6.576-2.95-6.576-6.576v-68.531c0-3.626 2.95-6.576 6.576-6.576h94.185c3.626 0 6.576 2.95 6.576 6.576v68.531c0 3.626-2.95 6.576-6.576 6.576zm-94.185-76.684c-.869 0-1.576.707-1.576 1.576v68.531c0 .869.707 1.576 1.576 1.576h94.185c.869 0 1.576-.707 1.576-1.576v-68.531c0-.869-.707-1.576-1.576-1.576z"/></g><g><path d="m166.12 256h-94.49c-6.243 0-11.321-5.079-11.321-11.321 0-2.965 2.412-5.377 5.377-5.377h106.379c2.965 0 5.377 2.412 5.377 5.377-.001 6.242-5.08 11.321-11.322 11.321zm-100.435-11.698c-.208 0-.377.169-.377.377 0 3.485 2.836 6.321 6.321 6.321h94.49c3.485 0 6.321-2.836 6.321-6.321 0-.208-.169-.377-.377-.377z"/></g><g><path d="m66.876 213.168c-.197 0-.396-.023-.596-.072l-14.498-3.547c-1.341-.328-2.162-1.681-1.834-3.022.328-1.342 1.678-2.163 3.022-1.834l14.498 3.547c1.341.328 2.162 1.681 1.834 3.022-.279 1.141-1.301 1.906-2.426 1.906z"/></g><g><path d="m170.581 213.239c-1.125 0-2.147-.765-2.426-1.906-.328-1.341.493-2.694 1.834-3.022l14.982-3.665c1.339-.327 2.694.493 3.022 1.834s-.493 2.694-1.834 3.022l-14.982 3.665c-.199.049-.399.072-.596.072z"/></g></g></g></svg>